<mxfile host="app.diagrams.net" modified="2023-11-15T07:27:05.008Z" agent="Mozilla/5.0 (Windows NT 10.0; Win64; x64) AppleWebKit/537.36 (KHTML, like Gecko) Chrome/119.0.0.0 Safari/537.36" version="21.7.5" etag="uCehlxSUsdh4BYsL687u" type="github">
  <diagram name="Page-1" id="3MgZrz0_n-3No9e91oeN">
    <mxGraphModel>
      <root>
        <mxCell id="0" />
        <mxCell id="1" parent="0" />
      </root>
    </mxGraphModel>
  </diagram>
</mxfile>
